<svg width="45" height="45" viewBox="0 0 45 45" fill="none" xmlns="http://www.w3.org/2000/svg">
    <rect width="45" height="45" rx="5" fill="#EEF5FF"/>
    <g clip-path="url(#clip0)">
        <path d="M37 28.0169L36.9687 19.5769C36.964 18.204 35.8294 17.0688 34.4396 17.0463C33.7538 17.0354 33.11 17.2911 32.6279 17.767C32.1644 18.2244 31.9057 18.832 31.8966 19.4819L31.6821 21.9688C30.2695 19.1076 27.9311 16.7988 25.016 15.4257V13.2666L27.1217 8.89639H25.7236C25.6357 8.89639 25.6245 8.89639 25.4233 8.69957C25.1564 8.43865 24.71 8.00195 23.8946 8.00195C23.0792 8.00195 22.6328 8.43871 22.366 8.69963C22.1648 8.89645 22.1535 8.89645 22.0657 8.89645C21.978 8.89645 21.9667 8.89645 21.7655 8.69969C21.4988 8.43877 21.0523 8.00195 20.237 8.00195C19.4216 8.00195 18.9752 8.43871 18.7084 8.69969C18.5072 8.89645 18.496 8.89645 18.4082 8.89645H17.0396L19.0381 13.2578V15.4231C16.0995 16.7925 13.7409 19.1114 12.3198 21.9891L12.1035 19.4819C12.0944 18.832 11.8357 18.2245 11.3723 17.767C10.8902 17.2911 10.2464 17.0361 9.56061 17.0464C8.17076 17.0689 7.03621 18.2041 7.03141 19.5767L7 28.0169L11.2319 34.7791L9.82609 38.0001H16.5191L18.1329 34.8983L18.1516 34.8486C18.1748 34.7867 18.1963 34.7246 18.2171 34.6622C19.4107 35.1358 20.6948 35.384 21.9869 35.384C23.2884 35.384 24.5798 35.1329 25.78 34.6531C25.8017 34.7185 25.8242 34.7838 25.8485 34.8486L25.8672 34.8983L27.4809 38.0001H34.174L32.7682 34.7791L37 28.0169ZM20.7947 13.9444H23.2594V15.1156H20.7947V13.9444ZM19.9367 9.95535C20.1379 9.75854 20.1491 9.75854 20.2369 9.75854C20.3246 9.75854 20.3359 9.75854 20.5371 9.95529C20.8038 10.2163 21.2503 10.653 22.0656 10.653C22.881 10.653 23.3275 10.2163 23.5943 9.95535C23.7955 9.75854 23.8067 9.75854 23.8946 9.75854C23.9824 9.75854 23.9937 9.75854 24.1949 9.95535C24.2822 10.0408 24.3888 10.145 24.5212 10.2466L23.5859 12.1877H20.48L19.5957 10.2578C19.735 10.1527 19.8462 10.0439 19.9367 9.95535ZM16.5242 34.1842L15.4529 36.2434H12.5095L13.2125 34.6326L8.75852 27.5155L8.78793 19.5829C8.78939 19.1598 9.14869 18.8098 9.58896 18.8027C9.79926 18.7984 9.99461 18.8754 10.1382 19.0172C10.2735 19.1506 10.3476 19.3291 10.3471 19.5197L10.3469 19.5589L10.874 25.6684C10.6769 25.9387 10.533 26.2464 10.4554 26.5739C10.3004 27.2279 10.4116 27.8975 10.7685 28.4614L13.1669 32.5155L14.6788 31.6211L12.273 27.5544L12.2558 27.5266C12.1517 27.3648 12.1194 27.1703 12.1647 26.9791C12.214 26.7709 12.3464 26.594 12.5375 26.481C12.8984 26.2676 13.3652 26.3618 13.5844 26.6899L16.1648 31.0269L16.1809 31.0529C16.7813 31.9867 16.9056 33.1251 16.5242 34.1842ZM18.4914 32.8718C18.4745 31.9019 18.1956 30.9438 17.6671 30.1161L15.0846 25.7758L15.0686 25.7499C14.63 25.0678 13.9151 24.6724 13.1572 24.614C13.1679 24.5807 13.1782 24.5484 13.189 24.5144C14.281 21.0787 16.7938 18.3009 20.0951 16.8722H23.957C27.2493 18.3146 29.7481 21.1006 30.8274 24.5411C30.8351 24.5656 30.8425 24.589 30.8502 24.6133C30.0896 24.6696 29.3714 25.0655 28.9314 25.7499L26.333 30.1161C25.8067 30.9401 25.5282 31.8936 25.509 32.8591C24.4109 33.3627 23.2045 33.6273 21.9869 33.6273C20.7801 33.6273 19.582 33.3673 18.4914 32.8718ZM28.5471 36.2435L27.4758 34.1843C27.0945 33.1253 27.2187 31.9867 27.8191 31.0528L30.4156 26.6898C30.6348 26.3617 31.1015 26.2676 31.4625 26.481C31.6535 26.5939 31.786 26.7708 31.8353 26.9791C31.8806 27.1703 31.8483 27.3648 31.7442 27.5266L29.3211 31.6211L30.833 32.5155L33.2314 28.4614C33.5883 27.8975 33.6995 27.228 33.5446 26.5739C33.4669 26.2464 33.3229 25.9386 33.1259 25.6684L33.653 19.5589L33.6528 19.5197C33.6522 19.3292 33.7264 19.1507 33.8617 19.0172C34.0053 18.8755 34.2013 18.7993 34.4109 18.8027C34.8511 18.8099 35.2105 19.1598 35.212 19.5832L35.2414 27.5156L30.7874 34.6326L31.4904 36.2435H28.5471Z" fill="#0F5EF7"/>
        <path d="M21.365 23.4857C21.365 23.277 21.5564 23.1031 22.1565 23.1031C22.6871 23.1031 23.2525 23.2509 23.8527 23.5554L24.4702 22.068C23.9744 21.7897 23.3482 21.6244 22.7045 21.5635V20.6328H21.4781V21.5809C20.0516 21.781 19.3384 22.6072 19.3384 23.5901C19.3384 25.8603 22.7045 25.2427 22.7045 26.0081C22.7045 26.2169 22.4957 26.3387 21.913 26.3387C21.2433 26.3387 20.4779 26.1212 19.9038 25.782L19.2428 27.2781C19.7647 27.5999 20.6084 27.8347 21.4781 27.887V28.8089H22.7046V27.8435C24.0528 27.6086 24.7312 26.791 24.7312 25.8516C24.7311 23.6075 21.365 24.2163 21.365 23.4857Z" fill="#0F5EF7"/>
    </g>
    <defs>
        <clipPath id="clip0">
            <rect width="30" height="30" fill="white" transform="translate(7 8)"/>
        </clipPath>
    </defs>
</svg>
