<?xml version="1.0" encoding="utf-8"?>
<!-- Generator: Adobe Illustrator 22.1.0, SVG Export Plug-In . SVG Version: 6.00 Build 0)  -->
<svg version="1.1"
	 id="svg8" inkscape:version="0.92.3 (2405546, 2018-03-11)" sodipodi:docname="vodafone.svg" xmlns:cc="http://creativecommons.org/ns#" xmlns:dc="http://purl.org/dc/elements/1.1/" xmlns:inkscape="http://www.inkscape.org/namespaces/inkscape" xmlns:rdf="http://www.w3.org/1999/02/22-rdf-syntax-ns#" xmlns:sodipodi="http://sodipodi.sourceforge.net/DTD/sodipodi-0.dtd" xmlns:svg="http://www.w3.org/2000/svg"
	 xmlns="http://www.w3.org/2000/svg" xmlns:xlink="http://www.w3.org/1999/xlink" x="0px" y="0px" viewBox="0 0 15.6 15.6"
	 style="enable-background:new 0 0 15.6 15.6;" xml:space="preserve">
<style type="text/css">
	.st0{fill:#FFFFFF;}
	.st1{fill:#EE3023;}
</style>
<sodipodi:namedview  bordercolor="#666666" borderopacity="1.0" fit-margin-bottom="0.5" fit-margin-left="0.5" fit-margin-right="0.5" fit-margin-top="0.5" id="base" inkscape:current-layer="layer1" inkscape:cx="185.63214" inkscape:cy="-85.91908" inkscape:document-units="mm" inkscape:pageopacity="0" inkscape:pageshadow="2" inkscape:window-height="1017" inkscape:window-maximized="1" inkscape:window-width="1920" inkscape:window-x="-8" inkscape:window-y="-8" inkscape:zoom="2.8" pagecolor="#00ffff" showgrid="false" units="px">
	</sodipodi:namedview>
<g id="g3721_1_" transform="matrix(0.27560986,0,0,0.27560986,0.63625548,139.7108)">
	<path id="path2333-2_1_" inkscape:connector-curvature="0" class="st0" d="M54.4-478.6c0,15.7-12.7,28.3-28.3,28.3
		s-28.3-12.7-28.3-28.3c0-15.7,12.7-28.3,28.3-28.3S54.4-494.2,54.4-478.6"/>
	<path id="path2337-8_1_" inkscape:connector-curvature="0" class="st1" d="M26.3-462.8c-7.8,0-15.9-6.6-15.9-17.3
		c0-7.1,3.8-13.9,8.7-17.9c4.7-3.9,11.3-6.5,17.2-6.5c0.8,0,1.6,0.1,2,0.2c-5.2,1.1-9.3,5.9-9.2,11.3c0,0.2,0,0.4,0,0.5
		c8.6,2.1,12.5,7.3,12.6,14.5C41.6-470.7,35.9-462.8,26.3-462.8"/>
</g>
</svg>
