<svg width="60" height="60" viewBox="0 0 60 60" fill="none" xmlns="http://www.w3.org/2000/svg">
    <rect width="60" height="60" rx="10" fill="#F70F0F"/>
    <g clip-path="url(#clip0)">
        <path d="M24.7726 19.5508H18.8277C18.2775 19.5508 17.8316 19.9967 17.8316 20.5469C17.8316 21.0971 18.2775 21.543 18.8277 21.543H24.7723C25.3225 21.543 25.7684 21.0971 25.7684 20.5469C25.7684 19.9967 25.3225 19.5508 24.7726 19.5508Z" fill="white"/>
        <path d="M24.7726 23.5352H18.8277C18.2775 23.5352 17.8316 23.9811 17.8316 24.5312C17.8316 25.0814 18.2775 25.5273 18.8277 25.5273H24.7723C25.3225 25.5273 25.7684 25.0814 25.7684 24.5312C25.7684 23.9811 25.3225 23.5352 24.7726 23.5352Z" fill="white"/>
        <path d="M24.7726 27.5195H18.8277C18.2775 27.5195 17.8316 27.9654 17.8316 28.5156C17.8316 29.0658 18.2775 29.5117 18.8277 29.5117H24.7723C25.3225 29.5117 25.7684 29.0658 25.7684 28.5156C25.7684 27.9654 25.3225 27.5195 24.7726 27.5195Z" fill="white"/>
        <path d="M24.7726 31.5039H18.8277C18.2775 31.5039 17.8316 31.9498 17.8316 32.5C17.8316 33.0502 18.2775 33.4961 18.8277 33.4961H24.7723C25.3225 33.4961 25.7684 33.0502 25.7684 32.5C25.7684 31.9498 25.3225 31.5039 24.7726 31.5039Z" fill="white"/>
        <path d="M24.7726 35.5547H18.8277C18.2775 35.5547 17.8316 36.0009 17.8316 36.5508C17.8316 37.101 18.2775 37.5469 18.8277 37.5469H24.7723C25.3225 37.5469 25.7684 37.101 25.7684 36.5508C25.7684 36.0009 25.3225 35.5547 24.7726 35.5547Z" fill="white"/>
        <path d="M28.118 21.543H34.0627C34.6129 21.543 35.0588 21.0971 35.0588 20.5469C35.0588 19.9967 34.6129 19.5508 34.0627 19.5508H28.118C27.5679 19.5508 27.1219 19.9967 27.1219 20.5469C27.1219 21.0971 27.5679 21.543 28.118 21.543Z" fill="white"/>
        <path d="M28.118 25.5273H34.0627C34.6129 25.5273 35.0588 25.0814 35.0588 24.5312C35.0588 23.9811 34.6129 23.5352 34.0627 23.5352H28.118C27.5679 23.5352 27.1219 23.9811 27.1219 24.5312C27.1219 25.0814 27.5679 25.5273 28.118 25.5273Z" fill="white"/>
        <path d="M31.9771 28.5156C31.9771 27.9654 31.5312 27.5195 30.981 27.5195H28.118C27.5679 27.5195 27.1219 27.9654 27.1219 28.5156C27.1219 29.0658 27.5679 29.5117 28.118 29.5117H30.981C31.5312 29.5117 31.9771 29.0658 31.9771 28.5156Z" fill="white"/>
        <path d="M40.8699 35.9438C40.4849 35.5508 39.8543 35.5438 39.4611 35.9288L38.0326 37.3277L36.6038 35.9288C36.2108 35.5441 35.5799 35.5506 35.1952 35.9438C34.8103 36.3368 34.817 36.9674 35.21 37.3524L36.6087 38.7217L35.21 40.0911C34.817 40.4761 34.8103 41.1067 35.1952 41.4997C35.3903 41.6989 35.6484 41.799 35.907 41.799C36.1584 41.799 36.41 41.7043 36.6038 41.5144L38.0326 40.1158L39.4611 41.5144C39.6551 41.7043 39.9065 41.799 40.1581 41.799C40.4164 41.799 40.6745 41.6989 40.8699 41.4997C41.2546 41.1067 41.2481 40.4758 40.8548 40.0911L39.4564 38.7217L40.8548 37.3524C41.2481 36.9674 41.2546 36.3368 40.8699 35.9438Z" fill="white"/>
        <path d="M43.931 32.918C42.6335 31.5976 40.9664 30.7655 39.1599 30.5204V17.0116C39.1599 14.7997 37.3602 13 35.1483 13H17.7423C15.5302 13 13.7305 14.7997 13.7305 17.0116V40.086C13.7305 42.2981 15.5302 44.0978 17.7421 44.0978H31.7416C33.3169 45.9484 35.582 47 38.0326 47C42.5941 47 46.3051 43.2864 46.3051 38.7218C46.3051 36.5366 45.462 34.4754 43.931 32.918ZM15.7227 40.086V17.0116C15.7227 15.8983 16.6287 14.9922 17.7423 14.9922H35.1483C36.2619 14.9922 37.1677 15.8983 37.1677 17.0116V30.4887C33.0111 30.9227 29.7601 34.4492 29.7601 38.7218C29.7601 39.9059 30.007 41.0509 30.4807 42.1054H17.7423C16.6287 42.1054 15.7227 41.1996 15.7227 40.086ZM38.0326 45.0078C36.0432 45.0078 34.2145 44.0945 33.0147 42.5023C32.1888 41.4061 31.7522 40.0987 31.7522 38.7218C31.7522 35.2557 34.5696 32.4358 38.0326 32.4358C38.0652 32.4358 38.0982 32.4363 38.1309 32.4368L38.1462 32.4371C39.7993 32.4664 41.3492 33.133 42.5103 34.3143C43.6727 35.4969 44.3129 37.0624 44.3129 38.7218C44.3129 42.1879 41.4955 45.0078 38.0326 45.0078Z" fill="white"/>
    </g>
    <defs>
        <clipPath id="clip0">
            <rect width="34" height="34" fill="white" transform="translate(13 13)"/>
        </clipPath>
    </defs>
</svg>
