<svg width="45" height="45" viewBox="0 0 45 45" fill="none" xmlns="http://www.w3.org/2000/svg">
    <rect width="45" height="45" rx="5" fill="#EEF5FF"/>
    <g clip-path="url(#clip0)">
        <path d="M35.6681 15.4111L35.6672 15.387C35.6537 15.0892 35.6447 14.7742 35.6393 14.4237C35.614 12.7144 34.2552 11.3005 32.5457 11.205C28.9815 11.0061 26.2243 9.84386 23.8684 7.54758L23.8483 7.52842C23.0799 6.82386 21.9207 6.82386 21.1521 7.52842L21.132 7.54758C18.7761 9.84386 16.0189 11.0061 12.4546 11.2052C10.7454 11.3005 9.38639 12.7144 9.36108 14.4239C9.35588 14.772 9.34665 15.0871 9.33317 15.387L9.33175 15.443C9.26246 19.0775 9.17637 23.6007 10.6896 27.7063C11.5216 29.9641 12.7817 31.9266 14.4347 33.5399C16.3173 35.3771 18.7832 36.8356 21.7637 37.8749C21.8607 37.9087 21.9614 37.9361 22.0641 37.9567C22.2088 37.9855 22.3545 38 22.5002 38C22.6459 38 22.7918 37.9855 22.9363 37.9567C23.039 37.9361 23.1404 37.9084 23.2379 37.8744C26.2148 36.8333 28.6781 35.374 30.559 33.537C32.2113 31.9233 33.4714 29.9603 34.3042 27.7021C35.8231 23.5842 35.7372 19.0524 35.6681 15.4111ZM32.5975 27.0727C31.0016 31.3999 27.7436 34.3717 22.6376 36.1573C22.6194 36.1635 22.6 36.1689 22.5799 36.1729C22.5272 36.1833 22.4735 36.1833 22.42 36.1727C22.4001 36.1687 22.3808 36.1635 22.3628 36.1573C17.2513 34.375 13.9912 31.4049 12.3965 27.0774C11.0018 23.293 11.0807 19.1409 11.1505 15.4778L11.151 15.4574C11.1652 15.1426 11.1746 14.8129 11.1798 14.4506C11.1912 13.6917 11.7957 13.0637 12.5561 13.0214C14.5731 12.9088 16.345 12.519 17.9731 11.8298C19.5991 11.1416 21.0433 10.1714 22.3876 8.864C22.456 8.80629 22.5447 8.80605 22.6128 8.864C23.9573 10.1714 25.4015 11.1416 27.0272 11.8298C28.6554 12.519 30.4273 12.9088 32.4445 13.0214C33.2049 13.0637 33.8094 13.6917 33.8205 14.4509C33.826 14.8151 33.8354 15.1448 33.8496 15.4574C33.9192 19.1248 33.9963 23.2803 32.5975 27.0727Z" fill="#0F5EF7"/>
        <path d="M22.4998 14.7754C18.2398 14.7754 14.7742 18.2412 14.7742 22.501C14.7742 26.7611 18.2398 30.2269 22.4998 30.2269C26.7596 30.2269 30.2254 26.7611 30.2254 22.501C30.2254 18.2412 26.7596 14.7754 22.4998 14.7754ZM22.4998 28.4077C19.2428 28.4077 16.5932 25.758 16.5932 22.501C16.5932 19.244 19.2428 16.5944 22.4998 16.5944C25.7566 16.5944 28.4062 19.244 28.4062 22.501C28.4062 25.758 25.7566 28.4077 22.4998 28.4077Z" fill="#0F5EF7"/>
        <path d="M24.7202 20.1025L21.1318 23.6909L20.1579 22.7169C19.8026 22.3617 19.2267 22.3617 18.8715 22.7169C18.5165 23.0722 18.5165 23.6481 18.8715 24.0031L20.4887 25.6204C20.6664 25.798 20.8991 25.8867 21.1318 25.8867C21.3645 25.8867 21.5973 25.798 21.7749 25.6204L26.0065 21.3887C26.3616 21.0335 26.3616 20.4575 26.0065 20.1025C25.6513 19.7471 25.0754 19.7471 24.7202 20.1025Z" fill="#0F5EF7"/>
    </g>
    <defs>
        <clipPath id="clip0">
            <rect width="31" height="31" fill="white" transform="translate(7 7)"/>
        </clipPath>
    </defs>
</svg>
