<svg width="80" height="80" xmlns="http://www.w3.org/2000/svg"><path d="M23.373 66.915V48.413L39.106 17.38V45.4l-1.594 3.014L40 52.541l2.488-4.128-1.594-3.014v-28.02l15.733 31.359v18.177c9.01-5.587 15.023-15.57 15.023-26.933h.332C71.982 57.625 57.635 71.98 40 71.98c-17.635 0-31.982-14.354-31.982-31.997h.333c0 11.362 6.013 21.346 15.022 26.933zM.22 34.643l.459-2.282c.169-.841.552-1.495 1.12-1.873.512-.34 1.194-.455 2.023-.288l.07.014c1.151.232 1.761.895 2.02 1.69l3.408-.788-.346 1.717-2.973.66-.137.68 2.73.55-.31 1.544-8.064-1.624zm4.396-1.357c.17-.841-.252-1.37-1.024-1.525-.852-.172-1.36.205-1.529 1.047l-.116.576 2.546.513.123-.61zm-2.303-6.913l1.679-3.934 1.34.572-1.066 2.497 1.75.747.941-2.205 1.34.572-.941 2.206 1.793.766 1.084-2.54 1.34.572-1.698 3.978-7.562-3.231zm3.385-7.079l1.17-1.662c1.238-1.759 3.196-1.947 5.261-.492l.154.108c2.055 1.449 2.548 3.362 1.31 5.121l-1.17 1.663-6.725-4.738zm2.078-.462l4.38 3.086.251-.355c.63-.894.412-1.953-1.087-3.009l-.096-.067c-1.498-1.056-2.568-.904-3.197-.01l-.25.355zm4.531-7.663l1.17-1.071 7.268 4.544-1.186 1.088-1.488-.964-1.56 1.43.839 1.558-1.144 1.048-3.899-7.633zm4.542 2.82l-2.32-1.54 1.315 2.46 1.005-.92zm1.034-7.305l1.364-.787 1.748 3.035-.048-4.015 1.588-.915-.096 4.071 4.264 3.023-1.568.904-2.928-2.07-.015 1.08 1.162 2.017-1.365.786-4.106-7.129zm9.044-2.817l-1.48.499-.473-1.404 4.453-1.5.473 1.403-1.481.499 2.153 6.394-1.492.502-2.153-6.393zM38.106 0l-.546 1.273c.526.635.898 1.56 1.039 2.727l.032.269c.308 2.555-.732 4.23-2.482 4.442a2.63 2.63 0 0 1-1.61-.303l-.206.45-1.142.138.544-1.272c-.526-.635-.896-1.55-1.038-2.728l-.032-.268c-.31-2.567.732-4.231 2.481-4.442.583-.07 1.13.041 1.612.314l.204-.462L38.105 0zm-1.052 4.435l-.024-.198a5.948 5.948 0 0 0-.248-1.177l-1.68 3.93c.267.252.563.347.889.308.816-.099 1.285-1.02 1.063-2.863zm-2.552 1.503l1.68-3.93a1.067 1.067 0 0 0-.877-.31c-.817.1-1.285 1.02-1.063 2.863l.024.199c.054.455.137.847.236 1.178zM41.76.088l2.314.239c.853.088 1.54.408 1.97.937.388.477.567 1.145.48 1.987l-.007.07c-.121 1.17-.722 1.84-1.489 2.174l1.11 3.317-1.74-.18-.942-2.898-.69-.07-.286 2.77-1.566-.161.846-8.185zm1.77 4.248c.853.088 1.339-.382 1.42-1.165.089-.865-.335-1.334-1.188-1.423l-.585-.06-.267 2.584.62.064zm8.444-2.439l1.504.503-.445 8.565-1.527-.51.12-1.77-2.006-.67-.956 1.49-1.471-.493 4.78-7.115zm-.261 5.342l.221-2.777-1.514 2.345 1.293.432zm6.94-2.62l1.243.762-.353 5.05 2.346-3.828 1.313.805-4.299 7.015-1.162-.712.37-5.26-2.443 3.988-1.313-.805 4.299-7.015zm2.062 9.932l1.522-.24c.022.49.05 1.23.553 1.706.417.397.923.358 1.246.017.251-.264.309-.598.015-1.638-.394-1.395-.478-2.366.314-3.202l.016-.016c.954-1.007 2.334-.994 3.4.017.511.485.956 1.263.956 2.22l-1.531.215c.005-.432-.06-1.03-.478-1.426-.342-.323-.792-.361-1.09-.046-.267.282-.325.616.017 1.912.35 1.321.35 2.194-.403 2.988l-.016.017c-.97 1.023-2.426.97-3.432.016-.597-.566-1.06-1.394-1.09-2.54zm10.29.08l.96 1.352-3.758 4.246 5.244-2.158.932 1.313-7.978 3.036-.885-1.245 5.486-6.543zm5.382 8.63l.642 1.45-6.625 5.444-.651-1.472 1.387-1.104-.857-1.935-1.744.298-.629-1.419 8.477-1.262zm-4.12 3.408l2.199-1.708-2.752.46.552 1.248zm6.581 3.324l.456 2.282c.168.841.066 1.593-.312 2.16-.341.511-.926.88-1.756 1.045l-.07.014c-1.151.23-1.969-.146-2.514-.78l-2.84 2.04-.342-1.716 2.489-1.756-.136-.68-2.73.546-.308-1.545 8.063-1.61zm-3.532 2.947c.168.84.76 1.166 1.531 1.012.853-.17 1.176-.714 1.008-1.555l-.115-.576-2.546.508.122.61zM40 80C17.944 80 0 62.048 0 39.982h1.33C1.33 61.314 18.677 78.67 40 78.67s38.67-17.355 38.67-38.687H80C80 62.048 62.056 80 40 80z" fill="#FFFFFE" fill-rule="evenodd"/></svg>
