<svg id="Logo" xmlns="http://www.w3.org/2000/svg" width="300" height="48" viewBox="0 0 300 48">
  <g id="Group_84" data-name="Group 84" transform="translate(50.229 10.617)">
    <path id="Path_11" data-name="Path 11" d="M11318.636,2348.438c.984,0,1.288-.267,1.288-1.35v-8.711c0-1.084-.3-1.351-1.288-1.37v-.913h6.079c2.687,0,4.485,1.122,4.485,3.5,0,1.788-1.078,2.625-2.8,2.929v.075c2.29.248,3.313,1.446,3.313,3.271,0,2.244-1.459,3.442-4.487,3.442h-6.589Zm5.436-6.486c1.476,0,1.987-.476,1.987-2.225,0-1.693-.587-2.283-2.065-2.283h-1.1v4.508Zm.32,6.085c1.571,0,2.2-.531,2.2-2.4,0-1.711-.606-2.377-2.2-2.377h-1.5v4.773Z" transform="translate(-11318.636 -2334.57)" fill="#231f20"/>
    <path id="Path_12" data-name="Path 12" d="M11337.141,2336.094l.21,3.537h-1.421c-.38-1.635-.51-2.187-1.723-2.187h-.814v9.644c0,1.1.361,1.35,1.5,1.35v.875h-5.964v-.875c1.135,0,1.5-.248,1.5-1.35v-9.644h-.816c-1.229,0-1.343.552-1.721,2.187h-1.438l.207-3.537Z" transform="translate(-11314.782 -2334.57)" fill="#231f20"/>
    <path id="Path_13" data-name="Path 13" d="M11344.49,2345.755h-4.052l-.475,1.637a1.816,1.816,0,0,0-.074.474c0,.476.378.533,1.21.572v.875h-4.183v-.875c.813-.1,1.078-.267,1.4-1.275l3.58-11.068h2.384l3.769,11.068c.3.875.493,1.179,1.27,1.275v.875h-5.376v-.875c.852-.039,1.152-.19,1.152-.572a1.61,1.61,0,0,0-.094-.474Zm-3.653-1.407h3.2l-1.022-3.214a18.723,18.723,0,0,1-.568-2.15h-.1c-.094.381-.246,1.028-.585,2.187Z" transform="translate(-11309.618 -2334.57)" fill="#231f20"/>
    <path id="Path_14" data-name="Path 14" d="M11345.789,2347.645v-2.055h1.874a1.628,1.628,0,0,0,1.875,1.693c.926,0,1.571-.361,1.571-1.2,0-.78-.436-1.122-1.326-1.312l-1.456-.3a2.832,2.832,0,0,1-2.5-2.967c0-2.148,1.721-3.213,3.806-3.213a7.6,7.6,0,0,1,3.274.684v2.016h-1.743a1.544,1.544,0,0,0-1.762-1.464c-.869,0-1.36.379-1.36,1.122,0,.627.341.931,1.116,1.1l1.383.324c1.872.419,2.933,1.427,2.933,3.157,0,2.053-1.514,3.232-4.164,3.232A6.669,6.669,0,0,1,11345.789,2347.645Z" transform="translate(-11305.237 -2333.473)" fill="#231f20"/>
    <path id="Path_15" data-name="Path 15" d="M11351.709,2347.645v-2.055h1.874a1.627,1.627,0,0,0,1.874,1.693c.93,0,1.574-.361,1.574-1.2,0-.78-.437-1.122-1.327-1.312l-1.456-.3a2.835,2.835,0,0,1-2.5-2.967c0-2.148,1.723-3.213,3.807-3.213a7.576,7.576,0,0,1,3.272.684v2.016h-1.74a1.545,1.545,0,0,0-1.762-1.464c-.871,0-1.363.379-1.363,1.122,0,.627.343.931,1.118,1.1l1.38.324c1.877.419,2.937,1.427,2.937,3.157,0,2.053-1.516,3.232-4.164,3.232A6.685,6.685,0,0,1,11351.709,2347.645Z" transform="translate(-11302.317 -2333.473)" fill="#231f20"/>
    <path id="Path_16" data-name="Path 16" d="M11365.828,2346.142l.452.78a5.282,5.282,0,0,1-3.954,1.521c-2.935,0-4.66-1.863-4.66-5.1,0-3.214,1.857-5.058,4.6-5.058,2.975,0,4.184,1.769,4.184,4.678v.817h-5.754c.074,2.15.794,3.024,2.611,3.024A5.475,5.475,0,0,0,11365.828,2346.142Zm-5.113-3.651h2.937c0-2.3-.381-3.024-1.364-3.024C11361.322,2339.467,11360.848,2340.17,11360.715,2342.491Z" transform="translate(-11299.377 -2333.473)" fill="#231f20"/>
    <path id="Path_17" data-name="Path 17" d="M11370.047,2340.83h-1.97v5.116c0,1.407.133,1.92,1.079,1.92a2.757,2.757,0,0,0,1.08-.228l.283.988a4.6,4.6,0,0,1-2.575.686c-1.723,0-2.688-.646-2.688-2.739v-5.744h-1.135v-.971l1.267-.513a6.223,6.223,0,0,1,.871-2.51l1.971-.247a23,23,0,0,0-.172,2.794h2.292Z" transform="translate(-11296.195 -2334.323)" fill="#231f20"/>
    <path id="Path_18" data-name="Path 18" d="M11386.812,2336.988c-1.326.077-1.459.456-1.363,1.446l.756,8.557c.094,1.065.247,1.427,1.308,1.466v.855H11382v-.855c1.23-.039,1.363-.344,1.27-1.369l-.514-6.145c-.037-.513-.057-1.444-.057-1.939v-.418h-.093a22.123,22.123,0,0,1-.453,2.187l-2.351,8.54h-1.76l-2.479-8.044a23.012,23.012,0,0,1-.59-2.7h-.094c-.02.5-.057,1.713-.113,2.625l-.344,5.877c-.056,1.045.059,1.389,1.213,1.389v.855h-4.089v-.855c1.061-.039,1.251-.361,1.325-1.5l.589-8.52c.057-.933.018-1.389-1.364-1.446v-.894H11377l2.024,6.637a16.223,16.223,0,0,1,.513,2.568h.074c.075-.418.247-1.6.511-2.568l1.8-6.637h4.887Z" transform="translate(-11292.531 -2334.57)" fill="#231f20"/>
    <path id="Path_19" data-name="Path 19" d="M11392.306,2347.056v.817a3.858,3.858,0,0,1-1.933.456c-1.175,0-1.8-.532-1.95-1.33a2.753,2.753,0,0,1-2.633,1.483c-1.684,0-3.011-.856-3.011-2.815,0-2.244,1.686-3.175,4.659-3.175.226,0,.661.018.908.037v-.875c0-1.464-.36-2.092-1.363-2.092-1.079,0-1.383.723-1.515,1.731h-2.084v-1.939a8.566,8.566,0,0,1,4.091-1.065c2.178,0,3.692.969,3.692,3.195,0,.57-.075,2.148-.075,3.879C11391.093,2346.789,11391.3,2347.016,11392.306,2347.056Zm-4.658-3.462c-1.288,0-1.971.552-1.971,1.712,0,1.084.417,1.407,1.138,1.407a1.941,1.941,0,0,0,1.437-.7l.059-2.415Z" transform="translate(-11286.986 -2333.473)" fill="#231f20"/>
    <path id="Path_20" data-name="Path 20" d="M11399.579,2346.028c0,1.084.208,1.313,1.118,1.332v.855h-5.075v-.855c.967-.02,1.138-.267,1.138-1.294v-4.221c0-1.141-.457-1.54-1.25-1.54a2.953,2.953,0,0,0-1.895.721v5.04c0,1.027.172,1.275,1.157,1.294v.855h-5.134v-.855c.947-.02,1.155-.248,1.155-1.332V2341.5c0-1.388-.188-1.578-1.136-1.615v-.837l3.049-.76h.284a4.323,4.323,0,0,1,.548,1.711,4.25,4.25,0,0,1,3.3-1.693,2.583,2.583,0,0,1,2.744,2.873Z" transform="translate(-11283.606 -2333.473)" fill="#231f20"/>
    <path id="Path_21" data-name="Path 21" d="M11407.074,2347.056v.817a3.847,3.847,0,0,1-1.933.456c-1.175,0-1.8-.532-1.95-1.33a2.748,2.748,0,0,1-2.631,1.483c-1.687,0-3.011-.856-3.011-2.815,0-2.244,1.685-3.175,4.657-3.175.228,0,.663.018.91.037v-.875c0-1.464-.359-2.092-1.362-2.092-1.082,0-1.384.723-1.518,1.731h-2.08v-1.939a8.543,8.543,0,0,1,4.087-1.065c2.18,0,3.694.969,3.694,3.195,0,.57-.077,2.148-.077,3.879C11405.861,2346.789,11406.071,2347.016,11407.074,2347.056Zm-4.659-3.462c-1.287,0-1.968.552-1.968,1.712,0,1.084.417,1.407,1.136,1.407a1.943,1.943,0,0,0,1.438-.7l.057-2.415Z" transform="translate(-11279.703 -2333.473)" fill="#231f20"/>
    <path id="Path_22" data-name="Path 22" d="M11404.206,2350.1a1.457,1.457,0,0,1,.984-1.332l1.875-.019a1.805,1.805,0,0,0-.23.913c0,.914.55,1.293,1.953,1.293,1.627,0,2.212-.532,2.212-1.464,0-.951-.6-1.236-2.594-1.275-.642-.018-1.684-.075-2.081-.132a1.516,1.516,0,0,1-1.419-1.654c0-.951.813-1.674,2.1-2.016a2.787,2.787,0,0,1-2.482-2.8c0-2.036,1.611-3.195,4.072-3.195a7.266,7.266,0,0,1,1.971.322,3.523,3.523,0,0,0,1.076.171,3.336,3.336,0,0,0,1.935-.912l.965,1.806a2.661,2.661,0,0,1-1.552.552,3.008,3.008,0,0,1-1.25-.267,1.982,1.982,0,0,1,.869,1.693c0,1.293-.757,2.833-4.222,2.871h-.226c-.4.19-.663.4-.663.705,0,.246.15.417.528.437l1.818.077c2.426.114,3.692.76,3.692,2.814,0,2.417-2.045,3.423-4.847,3.423C11406,2352.12,11404.206,2351.436,11404.206,2350.1Zm5.66-8.464c0-1.521-.4-2.034-1.289-2.034-.812,0-1.248.533-1.248,1.977,0,1.389.453,1.959,1.248,1.959C11409.448,2343.542,11409.866,2342.992,11409.866,2341.641Z" transform="translate(-11276.419 -2333.613)" fill="#231f20"/>
    <path id="Path_23" data-name="Path 23" d="M11419.313,2346.142l.454.78a5.287,5.287,0,0,1-3.956,1.521c-2.937,0-4.657-1.863-4.657-5.1,0-3.214,1.853-5.058,4.6-5.058,2.971,0,4.185,1.769,4.185,4.678v.817h-5.759c.078,2.15.8,3.024,2.614,3.024A5.462,5.462,0,0,0,11419.313,2346.142Zm-5.113-3.651h2.937c0-2.3-.378-3.024-1.364-3.024C11414.807,2339.467,11414.334,2340.17,11414.2,2342.491Z" transform="translate(-11272.992 -2333.473)" fill="#231f20"/>
    <path id="Path_24" data-name="Path 24" d="M11430.393,2338.306a2.561,2.561,0,0,1,2.688,2.873v4.849c0,1.084.21,1.313,1.138,1.332v.855h-5v-.855c.945,0,1.061-.248,1.061-1.275v-4.241c0-1.141-.416-1.54-1.137-1.54a2.807,2.807,0,0,0-1.7.627v5.154c0,1.027.133,1.255,1.021,1.275v.855h-4.9v-.855c.947,0,1.063-.248,1.063-1.275v-4.241c0-1.141-.417-1.54-1.138-1.54a2.94,2.94,0,0,0-1.76.684v5.1c0,1.027.095,1.275,1.06,1.275v.855h-5.035v-.855c.945-.02,1.153-.248,1.153-1.332V2341.5c0-1.388-.19-1.578-1.138-1.615v-.837l3.052-.76h.284a4.6,4.6,0,0,1,.511,1.655,3.87,3.87,0,0,1,3.122-1.636,2.569,2.569,0,0,1,2.463,1.674A4.033,4.033,0,0,1,11430.393,2338.306Z" transform="translate(-11269.739 -2333.473)" fill="#231f20"/>
    <path id="Path_25" data-name="Path 25" d="M11437.568,2346.142l.454.78a5.293,5.293,0,0,1-3.956,1.521c-2.937,0-4.657-1.863-4.657-5.1,0-3.214,1.854-5.058,4.6-5.058,2.971,0,4.185,1.769,4.185,4.678v.817h-5.758c.078,2.15.8,3.024,2.613,3.024A5.481,5.481,0,0,0,11437.568,2346.142Zm-5.112-3.651h2.934c0-2.3-.376-3.024-1.362-3.024C11433.063,2339.467,11432.588,2340.17,11432.456,2342.491Z" transform="translate(-11263.987 -2333.473)" fill="#231f20"/>
    <path id="Path_26" data-name="Path 26" d="M11445.938,2346.028c0,1.084.209,1.313,1.119,1.332v.855h-5.075v-.855c.967-.02,1.135-.267,1.135-1.294v-4.221c0-1.141-.452-1.54-1.25-1.54a2.949,2.949,0,0,0-1.892.721v5.04c0,1.027.171,1.275,1.155,1.294v.855H11436v-.855c.947-.02,1.154-.248,1.154-1.332V2341.5c0-1.388-.189-1.578-1.137-1.615v-.837l3.049-.76h.286a4.366,4.366,0,0,1,.55,1.711,4.241,4.241,0,0,1,3.294-1.693,2.583,2.583,0,0,1,2.743,2.873Z" transform="translate(-11260.731 -2333.473)" fill="#231f20"/>
    <path id="Path_27" data-name="Path 27" d="M11449.709,2340.83h-1.971v5.116c0,1.407.133,1.92,1.08,1.92a2.759,2.759,0,0,0,1.079-.228l.283.988a4.591,4.591,0,0,1-2.574.686c-1.723,0-2.689-.646-2.689-2.739v-5.744h-1.133v-.971l1.265-.513a6.239,6.239,0,0,1,.872-2.51l1.97-.247a23,23,0,0,0-.172,2.794h2.294Z" transform="translate(-11256.893 -2334.323)" fill="#231f20"/>
    <path id="Path_28" data-name="Path 28" d="M11451.349,2348.571v-2.529h1.991c.188,1.749.926,2.472,2.384,2.472,1.421,0,2.237-.666,2.237-2.11,0-1.181-.515-1.77-2.027-2.188l-1.346-.361c-1.988-.531-3.142-1.541-3.142-3.8,0-2.7,1.8-4.109,4.562-4.109a7.557,7.557,0,0,1,3.9.932v2.625h-1.931c-.169-1.427-.663-2.339-2.2-2.339a1.661,1.661,0,0,0-1.855,1.826c0,1.026.454,1.635,1.816,1.977l1.288.324c2.14.551,3.543,1.731,3.543,4.089,0,2.738-1.8,4.26-5.02,4.26A7.659,7.659,0,0,1,11451.349,2348.571Z" transform="translate(-11253.157 -2334.646)" fill="#231f20"/>
    <path id="Path_29" data-name="Path 29" d="M11460.122,2346.256a1.778,1.778,0,1,1,1.76-1.788A1.765,1.765,0,0,1,11460.122,2346.256Z" transform="translate(-11249.7 -2331.267)" fill="#231f20"/>
    <path id="Path_30" data-name="Path 30" d="M11469.041,2345.755h-4.05l-.476,1.637a1.87,1.87,0,0,0-.075.474c0,.476.379.533,1.211.572v.875h-4.184v-.875c.814-.1,1.08-.267,1.4-1.275l3.578-11.068h2.388l3.767,11.068c.3.875.493,1.179,1.269,1.275v.875h-5.377v-.875c.852-.039,1.154-.19,1.154-.572a1.558,1.558,0,0,0-.1-.474Zm-3.654-1.407h3.2l-1.021-3.214a19.161,19.161,0,0,1-.568-2.15h-.094c-.1.381-.246,1.028-.587,2.187Z" transform="translate(-11248.169 -2334.57)" fill="#231f20"/>
    <path id="Path_31" data-name="Path 31" d="M11472.28,2346.256a1.778,1.778,0,1,1,1.762-1.788A1.766,1.766,0,0,1,11472.28,2346.256Z" transform="translate(-11243.703 -2331.267)" fill="#231f20"/>
    <path id="Path_32" data-name="Path 32" d="M11475.179,2338.377c0-1.084-.3-1.351-1.289-1.37v-.913h5.568v.913c-1,.019-1.306.285-1.306,1.37v8.711c0,1.083.3,1.35,1.306,1.35v.875h-5.568v-.875c.985,0,1.289-.267,1.289-1.35Z" transform="translate(-11242.038 -2334.57)" fill="#231f20"/>
    <path id="Path_33" data-name="Path 33" d="M11480.391,2346.256a1.778,1.778,0,1,1,1.762-1.788A1.766,1.766,0,0,1,11480.391,2346.256Z" transform="translate(-11239.698 -2331.267)" fill="#231f20"/>
    <path id="Path_34" data-name="Path 34" d="M11481.9,2338.106a2.98,2.98,0,1,1,5.96,0,2.98,2.98,0,1,1-5.96,0Zm5.595.009a2.615,2.615,0,1,0-2.615,2.694A2.551,2.551,0,0,0,11487.493,2338.116Zm-2.639,1.745h-1.517v-.2c.4-.018.459-.155.459-.531v-2.061c0-.393-.008-.521-.459-.531v-.213h1.414c.791,0,1.327.2,1.327.95,0,.719-.393.906-1.045.924v.033a1.373,1.373,0,0,1,.672.566c.076.127.152.282.288.529.146.266.188.316.521.325v.206h-.9c-.145-.326-.315-.65-.441-.89-.3-.547-.384-.728-.851-.737v.9c0,.437.084.522.527.531Zm-.257-3.26h-.271v1.386h.382c.595,0,.8-.163.8-.71C11485.51,2336.806,11485.313,2336.6,11484.6,2336.6Z" transform="translate(-11238.087 -2335.078)" fill="#231f20"/>
  </g>
  <g id="Simbol">
    <g id="Group_85" data-name="Group 85">
      <path id="Path_35" data-name="Path 35" d="M11305.766,2375.441a31.3,31.3,0,0,1-6.357-3.533,37.969,37.969,0,0,1-5.81-5.152,41.746,41.746,0,0,1-8.319-13.478c2.276-7.882,2.354-14.226.25-21.108a51.82,51.82,0,0,1,9.5-2.853,55.293,55.293,0,0,1,21.481,0,51.912,51.912,0,0,1,9.5,2.853c-2.105,6.882-2.028,13.226.248,21.108a41.746,41.746,0,0,1-8.319,13.478,37.969,37.969,0,0,1-5.81,5.152A31.238,31.238,0,0,1,11305.766,2375.441Z" transform="translate(-11284.862 -2327.868)" fill="#ffeebd"/>
      <path id="Path_36" data-name="Path 36" d="M11305.686,2370.6a41.323,41.323,0,0,0,14.5-19.065c-1.889-6.481-2.3-11.934-1.165-17.559l-.219-.726-4.376-1.482-.456.365a39.4,39.4,0,0,0,.942,17.532c-4.152,9.652-11.339,15.505-16.445,17.748l-.041.756,6,2.646Z" transform="translate(-11278.378 -2326.114)" fill="#ed1c24"/>
      <path id="Path_37" data-name="Path 37" d="M11305.287,2328a54.049,54.049,0,0,0-18.833,3.329l-.206.388a34.844,34.844,0,0,1,2.026,9.492,35.6,35.6,0,0,1-1.169,11.1l-.029.109.049.1a32.882,32.882,0,0,0,1.82,3.372,33.353,33.353,0,0,0,2.2,3.126,34.564,34.564,0,0,0,2.562,2.882,37.889,37.889,0,0,0,2.915,2.641c1.02.833,2.117,1.643,3.257,2.4s2.339,1.486,3.587,2.172c.214.118.434.237.653.352l.347-.01.008-.159c.266-.117.536-.244.814-.381-5.031-2.481-11.692-8.217-15.628-17.367a39.4,39.4,0,0,0,.94-17.532,50.78,50.78,0,0,1,14.688-2.14,49.892,49.892,0,0,1,19.738,3.984,35.739,35.739,0,0,1,.983-3.793A53.716,53.716,0,0,0,11305.287,2328Z" transform="translate(-11284.385 -2328)" fill="#0072bc"/>
      <path id="Path_38" data-name="Path 38" d="M11312.307,2371.382c-11.583-4.279-19.982-10.867-24.279-20.1,2.144-8.7,1.317-14.15-.959-21.06h0q-.955.355-1.887.746c2.222,7.041,2.125,13.429-.182,21.352,3.783,10.167,11.773,18.924,20.9,22.574A31.475,31.475,0,0,0,11312.307,2371.382Z" transform="translate(-11285 -2326.891)" fill="#ffc20e"/>
    </g>
    <path id="Path_39" data-name="Path 39" d="M11299.245,2342.669v-.076c1.7-.229,3-1,3-2.988,0-2.511-1.986-3.621-4.426-3.621h-6.677v1.4c.9,0,1.22.249,1.22,1.341v9.847a.765.765,0,0,0,.764.765h5.094c3.3,0,4.48-1.263,4.48-3.39C11302.7,2344.03,11301.629,2342.9,11299.245,2342.669Zm-3.4-5.152h.764c1.354,0,1.906.555,1.906,2.182,0,1.841-.5,2.2-1.829,2.2h-.841Zm1.127,10.4h-1.127v-4.539h1.259c1.316,0,1.928.651,1.928,2.279C11299.035,2347.5,11298.368,2347.918,11296.976,2347.918Zm17.651-11.214.186,3.054h-1.659c-.42-1.647-.533-2.241-1.792-2.241h-.556v11.818h-3.49v-11.818h-.552c-1.259,0-1.372.594-1.793,2.241h-1.658l.185-3.054a.763.763,0,0,1,.763-.72h9.605A.764.764,0,0,1,11314.627,2336.7Z" transform="translate(-11281.971 -2324.008)" fill="#231f20"/>
  </g>
  <g id="Group_86" data-name="Group 86" transform="translate(50.898 32.685)">
    <path id="Path_40" data-name="Path 40" d="M11320.189,2353.966c0,2,.5,3.268,2.173,3.268a2.007,2.007,0,0,0,1.231-.336v-1.77c0-.619-.14-.8-.975-.827v-.379h2.705v.379c-.562.023-.7.208-.7.827v2.052a4.842,4.842,0,0,1-2.338.555c-1.978,0-3.2-1.413-3.2-3.825,0-2.443,1.317-3.91,3.2-3.91a3.965,3.965,0,0,1,2.293.555v1.2h-.757c-.161-.825-.465-1.248-1.622-1.248C11320.706,2350.512,11320.189,2351.977,11320.189,2353.966Z" transform="translate(-11319.085 -2349.685)" fill="#231f20"/>
    <path id="Path_41" data-name="Path 41" d="M11326.7,2351.4a1.024,1.024,0,0,1,.327.054l-.24,1.075a.843.843,0,0,0-.336-.054c-.886,0-1.177.348-1.177,1.4v1.9c0,.62.107.728.916.761v.369h-2.658v-.369c.614-.043.757-.141.757-.761v-2.661c0-.793-.152-.9-.789-.924v-.326l1.384-.435h.163a3.7,3.7,0,0,1,.184,1.237C11325.652,2351.927,11326.118,2351.4,11326.7,2351.4Z" transform="translate(-11316.906 -2348.982)" fill="#231f20"/>
    <path id="Path_42" data-name="Path 42" d="M11331.161,2355.4c0,.793.152.9.788.924v.325l-1.307.392h-.163a3.371,3.371,0,0,1-.237-.966,2.37,2.37,0,0,1-1.8.956,1.341,1.341,0,0,1-1.493-1.445v-2.476c0-.794-.164-.9-.759-.924v-.325l1.5-.435h.235v3.975c0,.675.294.881.812.881a1.882,1.882,0,0,0,1.44-.695v-2.476c0-.794-.164-.9-.759-.924v-.325l1.5-.435h.239Z" transform="translate(-11315.58 -2348.972)" fill="#231f20"/>
    <path id="Path_43" data-name="Path 43" d="M11333.566,2351.438c1.188,0,2.1.827,2.1,2.694,0,1.7-.779,2.825-2.206,2.825a1.994,1.994,0,0,1-1.492-.62v1.577c0,.586.106.715.844.749v.369h-2.586v-.369c.619-.043.758-.141.758-.761v-4.789c0-.794-.15-.9-.789-.924v-.325l1.385-.435h.161a3.238,3.238,0,0,1,.173.9A2.253,2.253,0,0,1,11333.566,2351.438Zm-.193.7a1.851,1.851,0,0,0-1.406.695v2.944a1.748,1.748,0,0,0,1.264.651c.9,0,1.375-.434,1.375-2.085C11334.605,2352.665,11334.25,2352.133,11333.373,2352.133Z" transform="translate(-11313.604 -2348.972)" fill="#231f20"/>
    <path id="Path_44" data-name="Path 44" d="M11339.131,2355.4c0,.793.15.9.786.924v.325l-1.307.392h-.161a3.308,3.308,0,0,1-.239-.966,2.37,2.37,0,0,1-1.8.956,1.341,1.341,0,0,1-1.493-1.445v-2.476c0-.794-.164-.9-.759-.924v-.325l1.5-.435h.237v3.975c0,.675.291.881.812.881a1.883,1.883,0,0,0,1.438-.695v-2.476c0-.794-.164-.9-.757-.924v-.325l1.5-.435h.241Z" transform="translate(-11311.647 -2348.972)" fill="#231f20"/>
    <path id="Path_45" data-name="Path 45" d="M11340.248,2356.558c0,.64.1.76.8.793v.369h-2.584v-.369c.658-.043.8-.141.8-.761v-5.214c0-.793-.183-.9-.863-.924v-.348l1.558-.315h.159a3.837,3.837,0,0,1,.131,1.076Z" transform="translate(-11309.554 -2349.79)" fill="#231f20"/>
    <path id="Path_46" data-name="Path 46" d="M11345.1,2357.191v.381h-2.842v-.381c.725-.021.865-.205.865-.825v-5.073c0-.62-.141-.8-.865-.825v-.381h5.1l.131,1.685h-.455c-.313-.957-.465-1.152-1.137-1.152h-1.75v2.955h1.006c.671,0,.887-.153.932-.771h.443v2.1h-.443c-.045-.6-.251-.8-.922-.8h-1.016v2.236C11344.151,2356.975,11344.323,2357.17,11345.1,2357.191Z" transform="translate(-11307.651 -2349.642)" fill="#231f20"/>
    <path id="Path_47" data-name="Path 47" d="M11348.555,2357.268v.369h-2.5v-.369c.616-.043.756-.141.756-.761v-2.661c0-.794-.149-.9-.787-.924v-.325l1.61-.435h.163v4.345C11347.8,2357.127,11347.875,2357.235,11348.555,2357.268Zm-1.319-5.943a.684.684,0,1,1,.671-.684A.671.671,0,0,1,11347.235,2351.325Z" transform="translate(-11305.792 -2349.707)" fill="#231f20"/>
    <path id="Path_48" data-name="Path 48" d="M11353.86,2356.533v.369h-2.443v-.369c.682-.033.756-.153.756-.686v-2.759c0-.641-.268-.891-.789-.891a1.982,1.982,0,0,0-1.491.684v2.966c0,.532.076.652.758.686v.369h-2.5v-.369c.616-.043.758-.141.758-.761v-2.661c0-.794-.151-.9-.789-.924v-.325l1.382-.435h.164a2.937,2.937,0,0,1,.185.945,2.469,2.469,0,0,1,1.848-.935,1.347,1.347,0,0,1,1.462,1.457v2.878C11353.159,2356.392,11353.289,2356.49,11353.86,2356.533Z" transform="translate(-11304.76 -2348.972)" fill="#231f20"/>
    <path id="Path_49" data-name="Path 49" d="M11357.292,2356.5v.358a2.306,2.306,0,0,1-.747.119c-.768,0-.93-.315-.983-.771a1.72,1.72,0,0,1-1.481.87,1.531,1.531,0,0,1-1.74-1.554c0-1.3,1.136-1.749,2.835-1.749.128,0,.235,0,.377.01v-.478c0-.933-.218-1.347-.984-1.347a1.092,1.092,0,0,0-1.256.978h-.68v-.966a4.662,4.662,0,0,1,2.021-.555c1.212,0,1.882.555,1.882,1.825,0,.326-.043,1.26-.043,2.249C11356.492,2356.3,11356.588,2356.443,11357.292,2356.5Zm-2.141-2.217c-1.235,0-1.764.338-1.764,1.163,0,.771.3,1.011.93,1.011a1.425,1.425,0,0,0,1.18-.794l.031-1.357C11355.377,2354.292,11355.291,2354.28,11355.151,2354.28Z" transform="translate(-11302.68 -2348.979)" fill="#231f20"/>
    <path id="Path_50" data-name="Path 50" d="M11361.774,2356.533v.369h-2.441v-.369c.68-.033.756-.153.756-.686v-2.759c0-.641-.271-.891-.789-.891a1.98,1.98,0,0,0-1.493.684v2.966c0,.532.076.652.756.686v.369h-2.5v-.369c.616-.043.756-.141.756-.761v-2.661c0-.794-.149-.9-.787-.924v-.325l1.384-.435h.162a2.991,2.991,0,0,1,.185.945,2.471,2.471,0,0,1,1.85-.935,1.346,1.346,0,0,1,1.46,1.457v2.878C11361.073,2356.392,11361.2,2356.49,11361.774,2356.533Z" transform="translate(-11300.852 -2348.972)" fill="#231f20"/>
    <path id="Path_51" data-name="Path 51" d="M11364.276,2352.858h-.737c-.106-.641-.312-.924-.905-.924-.825,0-1.387.543-1.387,2.161,0,1.738.5,2.325,1.5,2.325a1.974,1.974,0,0,0,1.438-.6l.28.3a2.429,2.429,0,0,1-4.293-1.815c0-1.879,1.069-2.878,2.475-2.878a2.83,2.83,0,0,1,1.624.425Z" transform="translate(-11298.81 -2348.968)" fill="#231f20"/>
    <path id="Path_52" data-name="Path 52" d="M11365.943,2357.268v.369h-2.5v-.369c.617-.043.758-.141.758-.761v-2.661c0-.794-.15-.9-.791-.924v-.325l1.612-.435h.161v4.345C11365.186,2357.127,11365.264,2357.235,11365.943,2357.268Zm-1.319-5.943a.684.684,0,1,1,.671-.684A.67.67,0,0,1,11364.624,2351.325Z" transform="translate(-11297.212 -2349.707)" fill="#231f20"/>
    <path id="Path_53" data-name="Path 53" d="M11370.428,2356.5v.358a2.272,2.272,0,0,1-.744.119c-.769,0-.932-.315-.984-.771a1.72,1.72,0,0,1-1.483.87,1.534,1.534,0,0,1-1.742-1.554c0-1.3,1.14-1.749,2.835-1.749.131,0,.239,0,.379.01v-.478c0-.933-.215-1.347-.986-1.347a1.087,1.087,0,0,0-1.251.978h-.683v-.966a4.675,4.675,0,0,1,2.023-.555c1.21,0,1.881.555,1.881,1.825,0,.326-.045,1.26-.045,2.249C11369.627,2356.3,11369.728,2356.443,11370.428,2356.5Zm-2.141-2.217c-1.23,0-1.764.338-1.764,1.163,0,.771.3,1.011.932,1.011a1.422,1.422,0,0,0,1.178-.794l.033-1.357C11368.516,2354.292,11368.43,2354.28,11368.287,2354.28Z" transform="translate(-11296.194 -2348.979)" fill="#231f20"/>
    <path id="Path_54" data-name="Path 54" d="M11372.372,2351.4a.993.993,0,0,1,.325.054l-.239,1.075a.838.838,0,0,0-.335-.054c-.889,0-1.178.348-1.178,1.4v1.9c0,.62.107.728.918.761v.369h-2.66v-.369c.618-.043.759-.141.759-.761v-2.661c0-.793-.154-.9-.792-.924v-.326l1.385-.435h.163a3.644,3.644,0,0,1,.185,1.237C11371.322,2351.927,11371.789,2351.4,11372.372,2351.4Z" transform="translate(-11294.37 -2348.982)" fill="#231f20"/>
    <path id="Path_55" data-name="Path 55" d="M11378.945,2351.934a1.54,1.54,0,0,1-1.361,1.618v.044a1.86,1.86,0,0,1,1.738,1.923c0,1.444-1.211,2.053-2.605,2.053h-3.2v-.381c.727-.021.867-.205.867-.825v-5.073c0-.62-.141-.8-.867-.825v-.381h2.726C11378.168,2350.087,11378.945,2350.74,11378.945,2351.934Zm-2.467-1.314h-1.068v2.792h1.111c1.051,0,1.386-.456,1.386-1.358C11377.907,2351,11377.527,2350.619,11376.479,2350.619Zm.121,3.313h-1.189v3.107h1.372c1.156,0,1.458-.489,1.458-1.585S11377.9,2353.933,11376.6,2353.933Z" transform="translate(-11292.229 -2349.642)" fill="#231f20"/>
    <path id="Path_56" data-name="Path 56" d="M11382.857,2356.5v.358a2.279,2.279,0,0,1-.745.119c-.768,0-.932-.315-.983-.771a1.721,1.721,0,0,1-1.481.87,1.533,1.533,0,0,1-1.742-1.554c0-1.3,1.138-1.749,2.833-1.749.13,0,.238,0,.379.01v-.478c0-.933-.217-1.347-.984-1.347a1.089,1.089,0,0,0-1.254.978h-.682v-.966a4.679,4.679,0,0,1,2.023-.555c1.21,0,1.88.555,1.88,1.825,0,.326-.044,1.26-.044,2.249C11382.057,2356.3,11382.157,2356.443,11382.857,2356.5Zm-2.141-2.217c-1.231,0-1.762.338-1.762,1.163,0,.771.3,1.011.932,1.011a1.422,1.422,0,0,0,1.176-.794l.033-1.357C11380.943,2354.292,11380.856,2354.28,11380.717,2354.28Z" transform="translate(-11290.063 -2348.979)" fill="#231f20"/>
    <path id="Path_57" data-name="Path 57" d="M11387.347,2356.533v.369h-2.446v-.369c.681-.033.758-.153.758-.686v-2.759c0-.641-.272-.891-.791-.891a1.977,1.977,0,0,0-1.491.684v2.966c0,.532.074.652.756.686v.369h-2.5v-.369c.616-.043.758-.141.758-.761v-2.661c0-.794-.151-.9-.791-.924v-.325l1.386-.435h.162a3.019,3.019,0,0,1,.185.945,2.47,2.47,0,0,1,1.848-.935,1.346,1.346,0,0,1,1.46,1.457v2.878C11386.641,2356.392,11386.772,2356.49,11387.347,2356.533Z" transform="translate(-11288.24 -2348.972)" fill="#231f20"/>
    <path id="Path_58" data-name="Path 58" d="M11389.844,2352.858h-.736c-.107-.641-.313-.924-.908-.924-.821,0-1.385.543-1.385,2.161,0,1.738.5,2.325,1.5,2.325a1.968,1.968,0,0,0,1.438-.6l.282.3a2.429,2.429,0,0,1-4.293-1.815c0-1.879,1.069-2.878,2.478-2.878a2.836,2.836,0,0,1,1.621.425Z" transform="translate(-11286.197 -2348.968)" fill="#231f20"/>
    <path id="Path_59" data-name="Path 59" d="M11394.024,2356.5v.358a2.3,2.3,0,0,1-.747.119c-.766,0-.929-.315-.981-.771a1.72,1.72,0,0,1-1.481.87,1.531,1.531,0,0,1-1.74-1.554c0-1.3,1.134-1.749,2.831-1.749.131,0,.239,0,.379.01v-.478c0-.933-.215-1.347-.981-1.347a1.092,1.092,0,0,0-1.257.978h-.682v-.966a4.679,4.679,0,0,1,2.023-.555c1.21,0,1.88.555,1.88,1.825,0,.326-.042,1.26-.042,2.249C11393.226,2356.3,11393.322,2356.443,11394.024,2356.5Zm-2.139-2.217c-1.235,0-1.764.338-1.764,1.163,0,.771.3,1.011.93,1.011a1.425,1.425,0,0,0,1.179-.794l.032-1.357C11392.111,2354.292,11392.026,2354.28,11391.886,2354.28Z" transform="translate(-11284.556 -2348.979)" fill="#231f20"/>
    <path id="Path_60" data-name="Path 60" d="M11397.605,2356.366c0,.684.249.8.972.825v.381h-2.972v-.381c.725-.021.974-.141.974-.825v-5.747h-.823c-.726,0-.854.282-.94,1.173h-.508v-1.706h5.417l.088,1.706h-.508c-.175-.924-.314-1.173-.964-1.173h-.735Z" transform="translate(-11281.972 -2349.642)" fill="#231f20"/>
    <path id="Path_61" data-name="Path 61" d="M11401.18,2351.4a.982.982,0,0,1,.324.054l-.239,1.075a.821.821,0,0,0-.332-.054c-.887,0-1.181.348-1.181,1.4v1.9c0,.62.109.728.92.761v.369h-2.662v-.369c.616-.043.757-.141.757-.761v-2.661c0-.793-.15-.9-.788-.924v-.326l1.385-.435h.161a3.6,3.6,0,0,1,.184,1.237C11400.132,2351.927,11400.6,2351.4,11401.18,2351.4Z" transform="translate(-11280.161 -2348.982)" fill="#231f20"/>
    <path id="Path_62" data-name="Path 62" d="M11405.563,2356.5v.358a2.3,2.3,0,0,1-.747.119c-.768,0-.932-.315-.983-.771a1.721,1.721,0,0,1-1.479.87,1.533,1.533,0,0,1-1.742-1.554c0-1.3,1.136-1.749,2.831-1.749.13,0,.24,0,.381.01v-.478c0-.933-.218-1.347-.986-1.347a1.09,1.09,0,0,0-1.254.978h-.68v-.966a4.67,4.67,0,0,1,2.021-.555c1.211,0,1.882.555,1.882,1.825,0,.326-.045,1.26-.045,2.249C11404.761,2356.3,11404.86,2356.443,11405.563,2356.5Zm-2.141-2.217c-1.233,0-1.766.338-1.766,1.163,0,.771.3,1.011.932,1.011a1.423,1.423,0,0,0,1.18-.794l.031-1.357C11403.646,2354.292,11403.562,2354.28,11403.422,2354.28Z" transform="translate(-11278.863 -2348.979)" fill="#231f20"/>
    <path id="Path_63" data-name="Path 63" d="M11410.048,2356.533v.369h-2.445v-.369c.682-.033.756-.153.756-.686v-2.759c0-.641-.271-.891-.787-.891a1.983,1.983,0,0,0-1.493.684v2.966c0,.532.076.652.756.686v.369h-2.5v-.369c.618-.043.758-.141.758-.761v-2.661c0-.794-.151-.9-.791-.924v-.325l1.386-.435h.162a2.991,2.991,0,0,1,.185.945,2.471,2.471,0,0,1,1.85-.935,1.345,1.345,0,0,1,1.458,1.457v2.878C11409.343,2356.392,11409.473,2356.49,11410.048,2356.533Z" transform="translate(-11277.037 -2348.972)" fill="#231f20"/>
    <path id="Path_64" data-name="Path 64" d="M11408.605,2356.58v-1.055h.726c.074.74.4,1.011,1.157,1.011.616,0,1.113-.25,1.113-.945,0-.586-.314-.793-.93-.945l-.642-.153c-.809-.195-1.37-.63-1.37-1.511,0-1.02.854-1.563,1.893-1.563a3.381,3.381,0,0,1,1.621.38v.978h-.689a.922.922,0,0,0-1.02-.858c-.637,0-.994.315-.994.836,0,.457.207.706.863.86l.64.151c1.018.239,1.481.695,1.481,1.478a1.816,1.816,0,0,1-2.066,1.792A3.155,3.155,0,0,1,11408.605,2356.58Z" transform="translate(-11274.917 -2348.975)" fill="#231f20"/>
    <path id="Path_65" data-name="Path 65" d="M11414.076,2357.268v.369h-2.5v-.369c.617-.043.76-.141.76-.761v-2.661c0-.794-.152-.9-.791-.924v-.325l1.611-.435h.162v4.345C11413.318,2357.127,11413.395,2357.235,11414.076,2357.268Zm-1.319-5.943a.684.684,0,1,1,.669-.684A.669.669,0,0,1,11412.757,2351.325Z" transform="translate(-11273.468 -2349.707)" fill="#231f20"/>
    <path id="Path_66" data-name="Path 66" d="M11415.465,2356.558c0,.64.1.76.8.793v.369h-2.584v-.369c.659-.043.8-.141.8-.761v-5.214c0-.793-.183-.9-.865-.924v-.348l1.558-.315h.161a3.837,3.837,0,0,1,.131,1.076Z" transform="translate(-11272.443 -2349.79)" fill="#231f20"/>
    <path id="Path_67" data-name="Path 67" d="M11417.825,2356.909l-1.6-4.259c-.216-.576-.368-.7-.789-.76v-.369h2.4v.369c-.517.022-.69.11-.69.315a.961.961,0,0,0,.076.327l.875,2.423a7.549,7.549,0,0,1,.249.945h.043c.033-.142.152-.609.26-.935l.855-2.433a1.374,1.374,0,0,0,.074-.315c0-.217-.172-.3-.692-.327v-.369h2.034v.369c-.432.055-.574.174-.789.76l-1.559,4.259Z" transform="translate(-11271.548 -2348.925)" fill="#231f20"/>
    <path id="Path_68" data-name="Path 68" d="M11424.318,2356.5v.358a2.306,2.306,0,0,1-.747.119c-.768,0-.929-.315-.983-.771a1.719,1.719,0,0,1-1.481.87,1.531,1.531,0,0,1-1.74-1.554c0-1.3,1.135-1.749,2.832-1.749.131,0,.237,0,.378.01v-.478c0-.933-.216-1.347-.982-1.347a1.092,1.092,0,0,0-1.257.978h-.68v-.966a4.679,4.679,0,0,1,2.022-.555c1.21,0,1.882.555,1.882,1.825,0,.326-.044,1.26-.044,2.249C11423.518,2356.3,11423.614,2356.443,11424.318,2356.5Zm-2.142-2.217c-1.232,0-1.762.338-1.762,1.163,0,.771.3,1.011.93,1.011a1.429,1.429,0,0,0,1.179-.794l.033-1.357C11422.4,2354.292,11422.317,2354.28,11422.177,2354.28Z" transform="translate(-11269.61 -2348.979)" fill="#231f20"/>
    <path id="Path_69" data-name="Path 69" d="M11428.8,2356.533v.369h-2.444v-.369c.681-.033.758-.153.758-.686v-2.759c0-.641-.271-.891-.789-.891a1.98,1.98,0,0,0-1.494.684v2.966c0,.532.076.652.757.686v.369h-2.5v-.369c.619-.043.759-.141.759-.761v-2.661c0-.794-.151-.9-.79-.924v-.325l1.386-.435h.161a2.922,2.922,0,0,1,.182.945,2.482,2.482,0,0,1,1.852-.935,1.347,1.347,0,0,1,1.461,1.457v2.878C11428.1,2356.392,11428.231,2356.49,11428.8,2356.533Z" transform="translate(-11267.786 -2348.972)" fill="#231f20"/>
    <path id="Path_70" data-name="Path 70" d="M11429.843,2357.268v.369h-2.5v-.369c.619-.043.759-.141.759-.761v-2.661c0-.794-.151-.9-.791-.924v-.325l1.611-.435h.163v4.345C11429.086,2357.127,11429.161,2357.235,11429.843,2357.268Zm-1.32-5.943a.684.684,0,1,1,.672-.684A.67.67,0,0,1,11428.522,2351.325Z" transform="translate(-11265.688 -2349.707)" fill="#231f20"/>
    <path id="Path_71" data-name="Path 71" d="M11434.328,2356.5v.358a2.3,2.3,0,0,1-.746.119c-.77,0-.931-.315-.983-.771a1.727,1.727,0,0,1-1.483.87,1.533,1.533,0,0,1-1.742-1.554c0-1.3,1.138-1.749,2.835-1.749.131,0,.237,0,.379.01v-.478c0-.933-.217-1.347-.985-1.347a1.09,1.09,0,0,0-1.255.978h-.68v-.966a4.663,4.663,0,0,1,2.022-.555c1.211,0,1.879.555,1.879,1.825,0,.326-.042,1.26-.042,2.249C11433.526,2356.3,11433.625,2356.443,11434.328,2356.5Zm-2.144-2.217c-1.231,0-1.762.338-1.762,1.163,0,.771.3,1.011.932,1.011a1.428,1.428,0,0,0,1.179-.794l.031-1.357C11432.412,2354.292,11432.325,2354.28,11432.185,2354.28Z" transform="translate(-11264.669 -2348.979)" fill="#231f20"/>
  </g>
</svg>
