<?xml version="1.0" encoding="utf-8"?>
<!-- Generator: Adobe Illustrator 27.0.0, SVG Export Plug-In . SVG Version: 6.00 Build 0)  -->
<svg version="1.1" id="Phone" xmlns="http://www.w3.org/2000/svg" xmlns:xlink="http://www.w3.org/1999/xlink" x="0px" y="0px"
	 viewBox="0 0 12 12" style="enable-background:new 0 0 12 12;" xml:space="preserve">
<style type="text/css">
	.st0{fill:#006AB3;}
</style>
<path id="Path_2" class="st0" d="M3.8,4L1,1.2c0.4-0.4,0.7-0.7,1.1-1.1C2.2,0,2.5,0,2.7,0.1l2.2,2.2C5,2.5,5,2.7,4.8,2.9L3.9,3.8
	C3.9,3.8,3.8,3.9,3.8,4L3.8,4z M6,8.5C5.6,8.1,5.2,7.7,4.7,7.3S3.9,6.4,3.5,5.9C3.2,5.6,3.1,5,3.3,4.6L0.5,1.7
	c-0.7,0.7-0.6,2.4,0.1,3.9c0.3,0.6,0.7,1.2,1.1,1.8c0.4,0.5,0.9,1.1,1.4,1.5c0.5,0.5,1,0.9,1.5,1.4c0.6,0.4,1.1,0.8,1.8,1.1
	c1.5,0.7,3.2,0.8,3.8,0.1L7.4,8.7C6.9,8.9,6.4,8.8,6,8.5L6,8.5z M11.9,9.3L9.7,7.2C9.5,7,9.3,7,9.1,7.2L8.6,7.6L8.2,8.1
	C8.1,8.1,8.1,8.2,8,8.2l2.8,2.8c0.4-0.4,0.7-0.7,1.1-1.1C12,9.8,12,9.5,11.9,9.3C11.9,9.3,11.9,9.3,11.9,9.3z"/>
</svg>
