<svg xmlns="http://www.w3.org/2000/svg" width="260" height="90" viewBox="0 0 260 90">
    <g fill="none" fill-rule="evenodd">
        <g fill-rule="nonzero">
            <path fill="#21418D" d="M.219 16.548V58.15h11.184V39.018a16.578 16.578 0 0 1 .693-5.253c1.5-4.815 5.38-7.868 10.35-7.868 4.323 0 5.878 2.342 5.878 7.71V58.15H39.432V31.563c0-10.702-5.01-15.966-14.603-15.966-7.116 0-12.284 3.687-14.861 8.72l1.043.252v-8.021H.22zM80.01 16.548l.218.715L92.615 57.76l.12.39h12.086l.117-.396 6.813-23.117a3403.165 3403.165 0 0 0 .984-3.348l.076-.26-1.058.006a179.433 179.433 0 0 1 .302.997c.238.791.5 1.668.778 2.606l6.845 23.117.117.395h12.002l.118-.391 12.32-40.497.217-.714H132.806l-.11.41-7.065 26.608-.902 3.48 1.057-.038-.076-.234a63.754 63.754 0 0 1-.917-3.205l-7.465-26.546-.114-.402H107.406l-.113.402-7.462 26.535a655.4 655.4 0 0 1-.904 3.486l1.057-.035a43.7 43.7 0 0 1-.287-.917 66.531 66.531 0 0 1-.702-2.522l-7.067-26.611-.109-.41H80.01zM42.167 37.337c0 12.372 9.132 21.747 22.303 21.747a25.835 25.835 0 0 0 16.624-5.926l.35-.29-.216-.398-3.889-7.216-.326-.605-.52.449a16.328 16.328 0 0 1-.868.664 21.551 21.551 0 0 1-2.423 1.492c-2.557 1.352-5.271 2.161-8.02 2.161-6.277 0-11.047-3.887-11.617-10.221l-.55.602H81.46l.045-.504a80.138 80.138 0 0 0 .12-1.508c.018-.251.035-.495.05-.728.045-.719.07-1.301.07-1.704 0-11.674-7.077-19.778-18.495-19.778-12.391 0-21.114 9.002-21.082 21.763zm28.328-4.45h.536l.005-1.105H53.33l.543.65c.908-5.025 4.274-7.965 9.14-7.965 4.373 0 7.323 2.931 7.466 7.883l.015.537zM148.279 44.638l-.371.574-4.592 7.098-.236.365.298.315c.052.054.147.15.286.28.226.212.495.447.805.7a21.672 21.672 0 0 0 3.12 2.101c3.415 1.906 7.398 3.049 11.908 3.049 9.55 0 16.03-5.341 16.03-12.729 0-5.858-3.42-9.296-10.173-12.268-1.075-.473-4.601-1.893-5.123-2.117-3.096-1.328-4.391-2.355-4.391-3.653 0-1.934 1.885-3.1 4.608-3.1a14.824 14.824 0 0 1 9.563 3.369l.535.439.309-.62 3.731-7.467.175-.35-.272-.281a8.812 8.812 0 0 0-.897-.774 16.782 16.782 0 0 0-2.613-1.639c-2.893-1.479-6.38-2.365-10.464-2.365-9.388 0-16.03 4.867-16.03 12.472 0 3.19 1.123 5.771 3.237 7.892 1.687 1.693 3.872 3.011 6.934 4.37 1.005.447 4.319 1.807 4.811 2.02 3.328 1.444 4.705 2.544 4.705 3.991 0 1.866-1.95 3.1-4.765 3.1-2.777 0-5.373-.806-7.714-2.152-.82-.472-1.55-.977-2.179-1.482a12.696 12.696 0 0 1-.753-.655l-.482-.483z"/>
            <path fill="#DD1F26" d="M182.675 57.731l.078.46H219.773V50.24h-28.247l.55.559c.048-4.088 2.66-7.142 8.869-11.491.87-.61 3.962-2.716 4.306-2.953 9.537-6.581 13.654-11.6 13.654-19.66 0-9.92-7.507-16.695-18.202-16.695-7.588.02-14.55 4.225-18.125 10.947l-.235.441.414.278 5.803 3.898.498.334.29-.526c.025-.048.081-.144.167-.282.146-.235.321-.497.525-.781a16.597 16.597 0 0 1 2.088-2.384c2.282-2.147 4.961-3.43 8.026-3.434 5.593 0 9.496 3.588 9.496 8.756 0 4.093-2.525 7.202-8.458 11.505-.991.718-4.558 3.211-5 3.525-9.65 6.866-13.92 12.344-13.92 21.066.021 1.476.156 2.94.403 4.388z"/>
            <path fill="#DD1F26" d="M245.426 36.482h.55l.044-1.104h-17.4l.447.874 17.355-24.292-.996-.322v24.844zm-25.874-.729l.001.179.022 6.68.002.55H246.02l-.55-.552v15.58h8.739V42.555l-.55.552h6.276V35.378h-6.276l.55.552V.95h-9.779l-.165.23-24.609 34.428-.104.145z"/>
        </g>
        <path fill="#212121" d="M1.839 85.429V70.924h5.188c2.615 0 4.474 1.349 4.474 3.739 0 1.348-.653 2.512-1.757 3.105v.04c1.594.47 2.35 1.941 2.35 3.412 0 2.901-2.33 4.209-5.005 4.209h-5.25zm2.635-8.58h2.553c1.144 0 1.798-.818 1.798-1.86 0-1.041-.613-1.797-1.838-1.797H4.474v3.657zm0 6.312h2.819c1.348 0 2.104-.878 2.104-2.104 0-1.205-.776-2.084-2.104-2.084h-2.82v4.188zm9.78 2.268V75.01h2.492v1.798c0 .388-.041.735-.041.735h.04c.47-1.491 1.717-2.676 3.31-2.676.245 0 .47.04.47.04v2.554s-.266-.04-.613-.04c-1.103 0-2.35.633-2.84 2.185-.163.511-.224 1.083-.224 1.696v4.127h-2.595zm7-5.21c0-3.207 2.186-5.454 5.291-5.454 3.003 0 4.617 2.186 4.617 4.944 0 .306-.061 1-.061 1h-7.19c.163 1.819 1.572 2.758 3.125 2.758 1.675 0 3.003-1.144 3.003-1.144l1 1.86s-1.593 1.49-4.187 1.49c-3.453 0-5.598-2.492-5.598-5.454zm2.738-1.287h4.555c-.04-1.41-.919-2.165-2.063-2.165-1.328 0-2.247.817-2.492 2.165zm8.145 3.494c0-3.31 4.474-3.535 6.17-3.535h.347v-.143c0-1.368-.858-1.838-2.002-1.838-1.492 0-2.86 1-2.86 1l-.98-1.858s1.613-1.287 4.085-1.287c2.737 0 4.33 1.512 4.33 4.147v6.517h-2.39v-.858c0-.409.041-.736.041-.736h-.04c.02 0-.797 1.839-3.167 1.839-1.859 0-3.534-1.165-3.534-3.248zm2.615-.123c0 .695.51 1.348 1.573 1.348 1.369 0 2.35-1.47 2.35-2.737v-.245h-.45c-1.328 0-3.473.184-3.473 1.634zm8.88 3.126V70.924h2.595v7.763h1.287l2.513-3.677h2.88l-3.289 4.658v.04l3.698 5.72h-2.983l-2.758-4.555h-1.348v4.556h-2.594zm10.985-12.196v-2.309h2.574v2.309h-2.574zm0 12.196V75.01h2.595v10.419h-2.595zm5.163 0V75.01h2.492v1.205c0 .388-.04.715-.04.715h.04c.45-.878 1.594-2.165 3.698-2.165 2.308 0 3.616 1.205 3.616 3.963v6.7h-2.574V79.26c0-1.266-.327-2.124-1.655-2.124-1.39 0-2.41.878-2.799 2.124-.143.43-.184.899-.184 1.39v4.78H59.78zm13.293 1.41s1.307.673 2.88.673c1.594 0 2.942-.674 2.942-2.533v-.613c0-.245.041-.551.041-.551h-.04c-.614.919-1.513 1.41-2.902 1.41-2.982 0-4.678-2.411-4.678-5.271s1.614-5.19 4.617-5.19c2.268 0 3.085 1.329 3.085 1.329h.061s-.02-.123-.02-.286v-.797h2.43v9.785c0 3.575-2.778 4.924-5.495 4.924-1.307 0-2.696-.368-3.697-.9l.776-1.98zm3.473-3.8c1.246 0 2.41-.716 2.41-3.065 0-2.37-1.164-3.003-2.574-3.003-1.573 0-2.451 1.144-2.451 2.901 0 1.818.94 3.166 2.615 3.166zm12.593 2.39V70.924h2.635l5.495 8.376c.552.838 1.205 2.247 1.205 2.247h.041s-.143-1.389-.143-2.247v-8.376h2.615V85.43h-2.615l-5.495-8.356c-.552-.837-1.205-2.247-1.205-2.247h-.041s.143 1.39.143 2.247v8.356h-2.635zm14.09-5.21c0-3.207 2.185-5.454 5.29-5.454 3.003 0 4.617 2.186 4.617 4.944 0 .306-.06 1-.06 1h-7.192c.164 1.819 1.573 2.758 3.126 2.758 1.675 0 3.003-1.144 3.003-1.144l1 1.86s-1.593 1.49-4.187 1.49c-3.453 0-5.598-2.492-5.598-5.454zm2.737-1.287h4.555c-.04-1.41-.919-2.165-2.063-2.165-1.328 0-2.247.817-2.492 2.165zm11.066 6.497l-3.186-10.419h2.737l1.818 6.844c.143.551.204 1.103.204 1.103h.041s.102-.552.245-1.103l1.92-6.824h2.31l1.92 6.824c.142.551.224 1.103.224 1.103h.04s.083-.552.226-1.103l1.818-6.844h2.696l-3.166 10.419h-2.88l-1.757-5.945c-.164-.552-.266-1.124-.266-1.124h-.04s-.082.572-.246 1.124l-1.757 5.945h-2.9zm13.56-1.287l1.184-1.819s1.144 1.144 2.84 1.144c.735 0 1.368-.326 1.368-.94 0-1.552-5.066-1.348-5.066-4.698 0-1.94 1.736-3.064 3.984-3.064 2.349 0 3.493 1.185 3.493 1.185l-.96 1.92s-.96-.899-2.554-.899c-.674 0-1.328.286-1.328.94 0 1.47 5.067 1.287 5.067 4.637 0 1.737-1.512 3.126-3.984 3.126-2.594 0-4.045-1.532-4.045-1.532zm9.717 1.287v-2.595h2.595v2.595h-2.595zm10.142 0V70.924h8.334v2.268h-5.7v4.106h4.802v2.268h-4.801v5.863h-2.635zm10.106-12.196v-2.309h2.574v2.309h-2.574zm0 12.196V75.01h2.594v10.419h-2.594zm5.162 0V75.01h2.493v1.798c0 .388-.041.735-.041.735h.04c.47-1.491 1.717-2.676 3.31-2.676.245 0 .47.04.47.04v2.554s-.266-.04-.613-.04c-1.103 0-2.35.633-2.84 2.185-.163.511-.224 1.083-.224 1.696v4.127h-2.595zm6.859-1.287l1.185-1.819s1.144 1.144 2.84 1.144c.735 0 1.368-.326 1.368-.94 0-1.552-5.066-1.348-5.066-4.698 0-1.94 1.736-3.064 3.983-3.064 2.35 0 3.493 1.185 3.493 1.185l-.96 1.92s-.96-.899-2.553-.899c-.674 0-1.328.286-1.328.94 0 1.47 5.066 1.287 5.066 4.637 0 1.737-1.512 3.126-3.983 3.126-2.595 0-4.045-1.532-4.045-1.532zm10.27-2.534v-4.371h-1.349v-2.064h1.41V72.17h2.533v3.003h2.37v2.064h-2.37v4.045c0 1.716 1.348 1.96 2.063 1.96.286 0 .47-.04.47-.04v2.267s-.306.062-.797.062c-1.45 0-4.33-.43-4.33-3.923z"/>
    </g>
</svg>
